<?xml version="1.0" standalone="no"?>
<!DOCTYPE svg PUBLIC "-//W3C//DTD SVG 20010904//EN"
 "http://www.w3.org/TR/2001/REC-SVG-20010904/DTD/svg10.dtd">
<svg version="1.0" xmlns="http://www.w3.org/2000/svg"
 width="144.000000pt" height="37.000000pt" viewBox="0 0 144.000000 37.000000"
 preserveAspectRatio="xMidYMid meet">

<g transform="translate(0.000000,37.000000) scale(0.100000,-0.100000)"
fill="#000000" stroke="none">
<path d="M377 313 c-4 -3 -7 -17 -7 -30 0 -18 5 -23 25 -23 14 0 28 7 31 15
11 27 -30 58 -49 38z"/>
<path d="M967 313 c-4 -3 -7 -17 -7 -30 0 -21 4 -24 27 -21 18 2 29 10 31 22
5 26 -33 48 -51 29z"/>
<path d="M767 293 c-4 -3 -7 -62 -7 -130 l0 -123 30 0 30 0 0 64 c0 43 5 67
15 76 25 21 35 1 35 -71 0 -67 1 -69 25 -69 25 0 25 1 25 79 0 59 -4 84 -16
95 -18 19 -24 19 -58 6 -26 -9 -26 -9 -26 35 0 40 -2 45 -23 45 -13 0 -27 -3
-30 -7z"/>
<path d="M67 260 c-49 -39 -59 -126 -22 -184 22 -34 81 -50 124 -35 49 17 38
44 -19 44 -37 0 -46 4 -57 25 -16 29 -11 93 8 116 9 12 23 14 50 10 27 -4 38
-2 43 9 14 36 -85 48 -127 15z"/>
<path d="M658 263 c-10 -2 -18 -11 -18 -19 0 -8 -7 -17 -15 -20 -19 -8 -19
-30 0 -37 10 -4 15 -25 17 -69 3 -56 6 -64 28 -75 30 -14 70 -7 70 13 0 8 -11
19 -25 24 -22 8 -25 16 -25 56 0 37 4 47 20 51 11 3 20 11 20 18 0 7 -9 15
-20 18 -12 3 -20 14 -20 26 0 21 -2 22 -32 14z"/>
<path d="M302 214 c-12 -8 -22 -10 -22 -5 0 6 -11 11 -25 11 -25 0 -25 -1 -25
-90 0 -89 0 -90 25 -90 22 0 25 4 25 39 0 56 15 91 40 91 13 0 20 7 20 20 0
11 0 23 1 27 1 14 -17 13 -39 -3z"/>
<path d="M488 219 c-53 -30 -38 -87 28 -109 33 -11 35 -14 20 -28 -12 -12 -20
-13 -39 -5 -18 9 -28 8 -36 0 -18 -18 -13 -25 24 -36 50 -14 103 3 111 34 9
38 -2 55 -46 72 -47 19 -47 38 0 38 41 0 51 21 15 35 -33 12 -55 12 -77 -1z"/>
<path d="M1083 223 c-15 -3 -23 -12 -23 -24 0 -17 5 -19 36 -13 26 5 39 3 45
-7 15 -24 10 -29 -26 -29 -75 0 -104 -86 -38 -111 18 -7 33 -5 52 4 20 10 32
11 44 3 11 -7 20 -7 26 -1 12 13 -1 151 -15 165 -13 13 -70 20 -101 13z m67
-117 c0 -7 -7 -19 -15 -26 -19 -16 -41 1 -32 24 8 20 47 21 47 2z"/>
<path d="M1325 221 c-11 -5 -35 -6 -52 -3 l-33 5 0 -92 0 -91 30 0 30 0 0 64
c0 45 5 67 15 76 23 19 28 7 26 -70 l-2 -70 31 0 30 0 0 78 c0 64 -4 82 -18
95 -20 19 -27 19 -57 8z"/>
<path d="M370 130 l0 -90 28 0 27 0 -3 90 c-3 88 -4 90 -28 90 -24 0 -24 -1
-24 -90z"/>
<path d="M960 130 l0 -90 30 0 30 0 0 90 0 90 -30 0 -30 0 0 -90z"/>
</g>
</svg>
